<mxfile host="Electron" agent="Mozilla/5.0 (Windows NT 10.0; Win64; x64) AppleWebKit/537.36 (KHTML, like Gecko) draw.io/26.0.4 Chrome/128.0.6613.186 Electron/32.2.5 Safari/537.36" version="26.0.4">
  <diagram name="페이지-1" id="3_2x7v33JF5hwlOxOwaM">
    <mxGraphModel dx="1221" dy="823" grid="1" gridSize="10" guides="1" tooltips="1" connect="1" arrows="1" fold="1" page="1" pageScale="1" pageWidth="827" pageHeight="1169" math="0" shadow="0">
      <root>
        <mxCell id="0" />
        <mxCell id="1" parent="0" />
        <mxCell id="GFp72_mxuHO9eIhjEzk--8" value="CounterServer" style="shape=image;verticalLabelPosition=bottom;verticalAlign=top;imageAspect=0;aspect=fixed;image=data:image/svg+xml,PHN2ZyB4bWxucz0iaHR0cDovL3d3dy53My5vcmcvMjAwMC9zdmciIHhtbDpzcGFjZT0icHJlc2VydmUiIGhlaWdodD0iNjQiIHdpZHRoPSI2NCIgeT0iMCIgeD0iMCIgaWQ9IkxheWVyXzEiIHZlcnNpb249IjEuMSIgdmlld0JveD0iMCAwIDY0IDY0Ij48c3R5bGU+LnN0MHtmaWxsOiMwMGFjZDd9PC9zdHlsZT48c3dpdGNoPjxnPjxwYXRoIGQ9Ik00LjggMjcuM2MtLjEgMC0uMi0uMS0uMS0uMmwuNy0uOGMuMS0uMS4yLS4yLjMtLjJoMTEuMWMuMSAwIC4yLjEuMS4ybC0uNS44Yy0uMS4xLS4yLjItLjMuMkg0Ljh6TS4xIDMwLjJjLS4xIDAtLjEtLjEtLjEtLjJsLjctLjhjMC0uMS4yLS4yLjMtLjJoMTQuMmMuMSAwIC4yLjEuMi4ybC0uMi43YzAgLjEtLjIuMi0uMy4ybC0xNC44LjF6TTcuNyAzM2MtLjEgMC0uMi0uMS0uMS0uMmwuNC0uN2MuMS0uMS4yLS4yLjMtLjJoNi4yYy4xIDAgLjIuMS4yLjJsLS4xLjdjMCAuMS0uMS4yLS4yLjJINy43ek00MCAyNi43bC01LjIgMS40Yy0uNS4xLS41LjItLjktLjMtLjUtLjUtLjgtLjktMS41LTEuMi0yLTEtMy45LS43LTUuNi41LTIuMSAxLjQtMy4yIDMuNC0zLjIgNS45IDAgMi41IDEuNyA0LjUgNC4yIDQuOSAyLjEuMyAzLjktLjUgNS4zLTIuMS4zLS4zLjUtLjcuOC0xLjJoLTZjLS43IDAtLjgtLjQtLjYtLjkuNC0xIDEuMi0yLjYgMS42LTMuNC4xLS4yLjMtLjUuOC0uNUg0MWMtLjEuOC0uMSAxLjctLjIgMi41LS4zIDIuMi0xLjIgNC4zLTIuNiA2LjEtMi4yIDMtNS4yIDQuOC04LjkgNS4zLTMuMS40LTUuOS0uMi04LjQtMi4xLTIuMy0xLjctMy42LTQuMS00LTYuOS0uNC0zLjQuNi02LjQgMi42LTkuMSAyLjItMi45IDUuMS00LjcgOC43LTUuNCAyLjktLjUgNS43LS4yIDguMyAxLjUgMS43IDEuMSAyLjggMi42IDMuNiA0LjQuNC40LjMuNS0uMS42eiIgY2xhc3M9InN0MCIvPjxwYXRoIGQ9Ik01MC4zIDQ0Yy0yLjgtLjEtNS40LS45LTcuNi0yLjctMS44LTEuNi0zLTMuNi0zLjQtNi0uNi0zLjUuNC02LjYgMi41LTkuNCAyLjMtMyA1LTQuNSA4LjctNS4yIDMuMi0uNiA2LjItLjIgOC45IDEuNiAyLjUgMS43IDQgNCA0LjQgNi45LjUgNC4yLS43IDcuNi0zLjYgMTAuNi0yLjEgMi4xLTQuNiAzLjQtNy41IDQtLjcgMC0xLjYuMS0yLjQuMnptNy40LTEyLjZjMC0uNCAwLS43LS4xLTEtLjYtMy4xLTMuNC00LjgtNi40LTQuMS0yLjkuNy00LjggMi41LTUuNSA1LjQtLjYgMi40LjYgNC45IDIuOSA1LjkgMS43LjcgMy40LjcgNS4xLS4yIDIuNS0xLjQgMy45LTMuNCA0LTZ6IiBjbGFzcz0ic3QwIi8+PC9nPjwvc3dpdGNoPjwvc3ZnPg==" vertex="1" parent="1">
          <mxGeometry x="426" y="288" width="64" height="64" as="geometry" />
        </mxCell>
        <mxCell id="GFp72_mxuHO9eIhjEzk--9" value="EchoServer" style="shape=image;verticalLabelPosition=bottom;verticalAlign=top;imageAspect=0;aspect=fixed;image=data:image/svg+xml,PHN2ZyB4bWxucz0iaHR0cDovL3d3dy53My5vcmcvMjAwMC9zdmciIHhtbDpzcGFjZT0icHJlc2VydmUiIGhlaWdodD0iNjQiIHdpZHRoPSI2NCIgeT0iMCIgeD0iMCIgaWQ9IkxheWVyXzEiIHZlcnNpb249IjEuMSIgdmlld0JveD0iMCAwIDY0IDY0Ij48c3R5bGU+LnN0MHtmaWxsOiMwMGFjZDd9PC9zdHlsZT48c3dpdGNoPjxnPjxwYXRoIGQ9Ik00LjggMjcuM2MtLjEgMC0uMi0uMS0uMS0uMmwuNy0uOGMuMS0uMS4yLS4yLjMtLjJoMTEuMWMuMSAwIC4yLjEuMS4ybC0uNS44Yy0uMS4xLS4yLjItLjMuMkg0Ljh6TS4xIDMwLjJjLS4xIDAtLjEtLjEtLjEtLjJsLjctLjhjMC0uMS4yLS4yLjMtLjJoMTQuMmMuMSAwIC4yLjEuMi4ybC0uMi43YzAgLjEtLjIuMi0uMy4ybC0xNC44LjF6TTcuNyAzM2MtLjEgMC0uMi0uMS0uMS0uMmwuNC0uN2MuMS0uMS4yLS4yLjMtLjJoNi4yYy4xIDAgLjIuMS4yLjJsLS4xLjdjMCAuMS0uMS4yLS4yLjJINy43ek00MCAyNi43bC01LjIgMS40Yy0uNS4xLS41LjItLjktLjMtLjUtLjUtLjgtLjktMS41LTEuMi0yLTEtMy45LS43LTUuNi41LTIuMSAxLjQtMy4yIDMuNC0zLjIgNS45IDAgMi41IDEuNyA0LjUgNC4yIDQuOSAyLjEuMyAzLjktLjUgNS4zLTIuMS4zLS4zLjUtLjcuOC0xLjJoLTZjLS43IDAtLjgtLjQtLjYtLjkuNC0xIDEuMi0yLjYgMS42LTMuNC4xLS4yLjMtLjUuOC0uNUg0MWMtLjEuOC0uMSAxLjctLjIgMi41LS4zIDIuMi0xLjIgNC4zLTIuNiA2LjEtMi4yIDMtNS4yIDQuOC04LjkgNS4zLTMuMS40LTUuOS0uMi04LjQtMi4xLTIuMy0xLjctMy42LTQuMS00LTYuOS0uNC0zLjQuNi02LjQgMi42LTkuMSAyLjItMi45IDUuMS00LjcgOC43LTUuNCAyLjktLjUgNS43LS4yIDguMyAxLjUgMS43IDEuMSAyLjggMi42IDMuNiA0LjQuNC40LjMuNS0uMS42eiIgY2xhc3M9InN0MCIvPjxwYXRoIGQ9Ik01MC4zIDQ0Yy0yLjgtLjEtNS40LS45LTcuNi0yLjctMS44LTEuNi0zLTMuNi0zLjQtNi0uNi0zLjUuNC02LjYgMi41LTkuNCAyLjMtMyA1LTQuNSA4LjctNS4yIDMuMi0uNiA2LjItLjIgOC45IDEuNiAyLjUgMS43IDQgNCA0LjQgNi45LjUgNC4yLS43IDcuNi0zLjYgMTAuNi0yLjEgMi4xLTQuNiAzLjQtNy41IDQtLjcgMC0xLjYuMS0yLjQuMnptNy40LTEyLjZjMC0uNCAwLS43LS4xLTEtLjYtMy4xLTMuNC00LjgtNi40LTQuMS0yLjkuNy00LjggMi41LTUuNSA1LjQtLjYgMi40LjYgNC45IDIuOSA1LjkgMS43LjcgMy40LjcgNS4xLS4yIDIuNS0xLjQgMy45LTMuNCA0LTZ6IiBjbGFzcz0ic3QwIi8+PC9nPjwvc3dpdGNoPjwvc3ZnPg==" vertex="1" parent="1">
          <mxGeometry x="426" y="470" width="64" height="64" as="geometry" />
        </mxCell>
        <mxCell id="GFp72_mxuHO9eIhjEzk--10" value="" style="endArrow=classic;startArrow=classic;html=1;rounded=0;exitX=0.9;exitY=0.01;exitDx=0;exitDy=0;exitPerimeter=0;" edge="1" parent="1" source="GFp72_mxuHO9eIhjEzk--19" target="GFp72_mxuHO9eIhjEzk--8">
          <mxGeometry width="50" height="50" relative="1" as="geometry">
            <mxPoint x="320" y="340" as="sourcePoint" />
            <mxPoint x="290" y="299.28932188134524" as="targetPoint" />
          </mxGeometry>
        </mxCell>
        <mxCell id="GFp72_mxuHO9eIhjEzk--11" value="" style="endArrow=classic;startArrow=classic;html=1;rounded=0;" edge="1" parent="1" source="GFp72_mxuHO9eIhjEzk--19" target="GFp72_mxuHO9eIhjEzk--9">
          <mxGeometry width="50" height="50" relative="1" as="geometry">
            <mxPoint x="390" y="420" as="sourcePoint" />
            <mxPoint x="290" y="520.7106781186548" as="targetPoint" />
          </mxGeometry>
        </mxCell>
        <mxCell id="GFp72_mxuHO9eIhjEzk--12" value="" style="endArrow=classic;startArrow=classic;html=1;rounded=0;" edge="1" parent="1" source="GFp72_mxuHO9eIhjEzk--8" target="GFp72_mxuHO9eIhjEzk--18">
          <mxGeometry width="50" height="50" relative="1" as="geometry">
            <mxPoint x="458" y="267.28932188134524" as="sourcePoint" />
            <mxPoint x="590" y="320" as="targetPoint" />
          </mxGeometry>
        </mxCell>
        <mxCell id="GFp72_mxuHO9eIhjEzk--15" value="ReplicaSet" style="swimlane;whiteSpace=wrap;html=1;" vertex="1" parent="1">
          <mxGeometry x="580" y="402" width="200" height="200" as="geometry" />
        </mxCell>
        <mxCell id="GFp72_mxuHO9eIhjEzk--13" value="GrpcEchoServer" style="shape=image;verticalLabelPosition=bottom;verticalAlign=top;imageAspect=0;aspect=fixed;image=data:image/svg+xml,PHN2ZyB4bWxucz0iaHR0cDovL3d3dy53My5vcmcvMjAwMC9zdmciIHhtbDpzcGFjZT0icHJlc2VydmUiIGhlaWdodD0iNjQiIHdpZHRoPSI2NCIgeT0iMCIgeD0iMCIgaWQ9IkxheWVyXzEiIHZlcnNpb249IjEuMSIgdmlld0JveD0iMCAwIDY0IDY0Ij48c3R5bGU+LnN0MHtmaWxsOiMwMGFjZDd9PC9zdHlsZT48c3dpdGNoPjxnPjxwYXRoIGQ9Ik00LjggMjcuM2MtLjEgMC0uMi0uMS0uMS0uMmwuNy0uOGMuMS0uMS4yLS4yLjMtLjJoMTEuMWMuMSAwIC4yLjEuMS4ybC0uNS44Yy0uMS4xLS4yLjItLjMuMkg0Ljh6TS4xIDMwLjJjLS4xIDAtLjEtLjEtLjEtLjJsLjctLjhjMC0uMS4yLS4yLjMtLjJoMTQuMmMuMSAwIC4yLjEuMi4ybC0uMi43YzAgLjEtLjIuMi0uMy4ybC0xNC44LjF6TTcuNyAzM2MtLjEgMC0uMi0uMS0uMS0uMmwuNC0uN2MuMS0uMS4yLS4yLjMtLjJoNi4yYy4xIDAgLjIuMS4yLjJsLS4xLjdjMCAuMS0uMS4yLS4yLjJINy43ek00MCAyNi43bC01LjIgMS40Yy0uNS4xLS41LjItLjktLjMtLjUtLjUtLjgtLjktMS41LTEuMi0yLTEtMy45LS43LTUuNi41LTIuMSAxLjQtMy4yIDMuNC0zLjIgNS45IDAgMi41IDEuNyA0LjUgNC4yIDQuOSAyLjEuMyAzLjktLjUgNS4zLTIuMS4zLS4zLjUtLjcuOC0xLjJoLTZjLS43IDAtLjgtLjQtLjYtLjkuNC0xIDEuMi0yLjYgMS42LTMuNC4xLS4yLjMtLjUuOC0uNUg0MWMtLjEuOC0uMSAxLjctLjIgMi41LS4zIDIuMi0xLjIgNC4zLTIuNiA2LjEtMi4yIDMtNS4yIDQuOC04LjkgNS4zLTMuMS40LTUuOS0uMi04LjQtMi4xLTIuMy0xLjctMy42LTQuMS00LTYuOS0uNC0zLjQuNi02LjQgMi42LTkuMSAyLjItMi45IDUuMS00LjcgOC43LTUuNCAyLjktLjUgNS43LS4yIDguMyAxLjUgMS43IDEuMSAyLjggMi42IDMuNiA0LjQuNC40LjMuNS0uMS42eiIgY2xhc3M9InN0MCIvPjxwYXRoIGQ9Ik01MC4zIDQ0Yy0yLjgtLjEtNS40LS45LTcuNi0yLjctMS44LTEuNi0zLTMuNi0zLjQtNi0uNi0zLjUuNC02LjYgMi41LTkuNCAyLjMtMyA1LTQuNSA4LjctNS4yIDMuMi0uNiA2LjItLjIgOC45IDEuNiAyLjUgMS43IDQgNCA0LjQgNi45LjUgNC4yLS43IDcuNi0zLjYgMTAuNi0yLjEgMi4xLTQuNiAzLjQtNy41IDQtLjcgMC0xLjYuMS0yLjQuMnptNy40LTEyLjZjMC0uNCAwLS43LS4xLTEtLjYtMy4xLTMuNC00LjgtNi40LTQuMS0yLjkuNy00LjggMi41LTUuNSA1LjQtLjYgMi40LjYgNC45IDIuOSA1LjkgMS43LjcgMy40LjcgNS4xLS4yIDIuNS0xLjQgMy45LTMuNCA0LTZ6IiBjbGFzcz0ic3QwIi8+PC9nPjwvc3dpdGNoPjwvc3ZnPg==" vertex="1" parent="GFp72_mxuHO9eIhjEzk--15">
          <mxGeometry x="20" y="40" width="64" height="64" as="geometry" />
        </mxCell>
        <mxCell id="GFp72_mxuHO9eIhjEzk--14" value="GrpcEchoServer" style="shape=image;verticalLabelPosition=bottom;verticalAlign=top;imageAspect=0;aspect=fixed;image=data:image/svg+xml,PHN2ZyB4bWxucz0iaHR0cDovL3d3dy53My5vcmcvMjAwMC9zdmciIHhtbDpzcGFjZT0icHJlc2VydmUiIGhlaWdodD0iNjQiIHdpZHRoPSI2NCIgeT0iMCIgeD0iMCIgaWQ9IkxheWVyXzEiIHZlcnNpb249IjEuMSIgdmlld0JveD0iMCAwIDY0IDY0Ij48c3R5bGU+LnN0MHtmaWxsOiMwMGFjZDd9PC9zdHlsZT48c3dpdGNoPjxnPjxwYXRoIGQ9Ik00LjggMjcuM2MtLjEgMC0uMi0uMS0uMS0uMmwuNy0uOGMuMS0uMS4yLS4yLjMtLjJoMTEuMWMuMSAwIC4yLjEuMS4ybC0uNS44Yy0uMS4xLS4yLjItLjMuMkg0Ljh6TS4xIDMwLjJjLS4xIDAtLjEtLjEtLjEtLjJsLjctLjhjMC0uMS4yLS4yLjMtLjJoMTQuMmMuMSAwIC4yLjEuMi4ybC0uMi43YzAgLjEtLjIuMi0uMy4ybC0xNC44LjF6TTcuNyAzM2MtLjEgMC0uMi0uMS0uMS0uMmwuNC0uN2MuMS0uMS4yLS4yLjMtLjJoNi4yYy4xIDAgLjIuMS4yLjJsLS4xLjdjMCAuMS0uMS4yLS4yLjJINy43ek00MCAyNi43bC01LjIgMS40Yy0uNS4xLS41LjItLjktLjMtLjUtLjUtLjgtLjktMS41LTEuMi0yLTEtMy45LS43LTUuNi41LTIuMSAxLjQtMy4yIDMuNC0zLjIgNS45IDAgMi41IDEuNyA0LjUgNC4yIDQuOSAyLjEuMyAzLjktLjUgNS4zLTIuMS4zLS4zLjUtLjcuOC0xLjJoLTZjLS43IDAtLjgtLjQtLjYtLjkuNC0xIDEuMi0yLjYgMS42LTMuNC4xLS4yLjMtLjUuOC0uNUg0MWMtLjEuOC0uMSAxLjctLjIgMi41LS4zIDIuMi0xLjIgNC4zLTIuNiA2LjEtMi4yIDMtNS4yIDQuOC04LjkgNS4zLTMuMS40LTUuOS0uMi04LjQtMi4xLTIuMy0xLjctMy42LTQuMS00LTYuOS0uNC0zLjQuNi02LjQgMi42LTkuMSAyLjItMi45IDUuMS00LjcgOC43LTUuNCAyLjktLjUgNS43LS4yIDguMyAxLjUgMS43IDEuMSAyLjggMi42IDMuNiA0LjQuNC40LjMuNS0uMS42eiIgY2xhc3M9InN0MCIvPjxwYXRoIGQ9Ik01MC4zIDQ0Yy0yLjgtLjEtNS40LS45LTcuNi0yLjctMS44LTEuNi0zLTMuNi0zLjQtNi0uNi0zLjUuNC02LjYgMi41LTkuNCAyLjMtMyA1LTQuNSA4LjctNS4yIDMuMi0uNiA2LjItLjIgOC45IDEuNiAyLjUgMS43IDQgNCA0LjQgNi45LjUgNC4yLS43IDcuNi0zLjYgMTAuNi0yLjEgMi4xLTQuNiAzLjQtNy41IDQtLjcgMC0xLjYuMS0yLjQuMnptNy40LTEyLjZjMC0uNCAwLS43LS4xLTEtLjYtMy4xLTMuNC00LjgtNi40LTQuMS0yLjkuNy00LjggMi41LTUuNSA1LjQtLjYgMi40LjYgNC45IDIuOSA1LjkgMS43LjcgMy40LjcgNS4xLS4yIDIuNS0xLjQgMy45LTMuNCA0LTZ6IiBjbGFzcz0ic3QwIi8+PC9nPjwvc3dpdGNoPjwvc3ZnPg==" vertex="1" parent="GFp72_mxuHO9eIhjEzk--15">
          <mxGeometry x="101" y="114" width="64" height="64" as="geometry" />
        </mxCell>
        <mxCell id="GFp72_mxuHO9eIhjEzk--16" value="GrpcEchoServer" style="shape=image;verticalLabelPosition=bottom;verticalAlign=top;imageAspect=0;aspect=fixed;image=data:image/svg+xml,PHN2ZyB4bWxucz0iaHR0cDovL3d3dy53My5vcmcvMjAwMC9zdmciIHhtbDpzcGFjZT0icHJlc2VydmUiIGhlaWdodD0iNjQiIHdpZHRoPSI2NCIgeT0iMCIgeD0iMCIgaWQ9IkxheWVyXzEiIHZlcnNpb249IjEuMSIgdmlld0JveD0iMCAwIDY0IDY0Ij48c3R5bGU+LnN0MHtmaWxsOiMwMGFjZDd9PC9zdHlsZT48c3dpdGNoPjxnPjxwYXRoIGQ9Ik00LjggMjcuM2MtLjEgMC0uMi0uMS0uMS0uMmwuNy0uOGMuMS0uMS4yLS4yLjMtLjJoMTEuMWMuMSAwIC4yLjEuMS4ybC0uNS44Yy0uMS4xLS4yLjItLjMuMkg0Ljh6TS4xIDMwLjJjLS4xIDAtLjEtLjEtLjEtLjJsLjctLjhjMC0uMS4yLS4yLjMtLjJoMTQuMmMuMSAwIC4yLjEuMi4ybC0uMi43YzAgLjEtLjIuMi0uMy4ybC0xNC44LjF6TTcuNyAzM2MtLjEgMC0uMi0uMS0uMS0uMmwuNC0uN2MuMS0uMS4yLS4yLjMtLjJoNi4yYy4xIDAgLjIuMS4yLjJsLS4xLjdjMCAuMS0uMS4yLS4yLjJINy43ek00MCAyNi43bC01LjIgMS40Yy0uNS4xLS41LjItLjktLjMtLjUtLjUtLjgtLjktMS41LTEuMi0yLTEtMy45LS43LTUuNi41LTIuMSAxLjQtMy4yIDMuNC0zLjIgNS45IDAgMi41IDEuNyA0LjUgNC4yIDQuOSAyLjEuMyAzLjktLjUgNS4zLTIuMS4zLS4zLjUtLjcuOC0xLjJoLTZjLS43IDAtLjgtLjQtLjYtLjkuNC0xIDEuMi0yLjYgMS42LTMuNC4xLS4yLjMtLjUuOC0uNUg0MWMtLjEuOC0uMSAxLjctLjIgMi41LS4zIDIuMi0xLjIgNC4zLTIuNiA2LjEtMi4yIDMtNS4yIDQuOC04LjkgNS4zLTMuMS40LTUuOS0uMi04LjQtMi4xLTIuMy0xLjctMy42LTQuMS00LTYuOS0uNC0zLjQuNi02LjQgMi42LTkuMSAyLjItMi45IDUuMS00LjcgOC43LTUuNCAyLjktLjUgNS43LS4yIDguMyAxLjUgMS43IDEuMSAyLjggMi42IDMuNiA0LjQuNC40LjMuNS0uMS42eiIgY2xhc3M9InN0MCIvPjxwYXRoIGQ9Ik01MC4zIDQ0Yy0yLjgtLjEtNS40LS45LTcuNi0yLjctMS44LTEuNi0zLTMuNi0zLjQtNi0uNi0zLjUuNC02LjYgMi41LTkuNCAyLjMtMyA1LTQuNSA4LjctNS4yIDMuMi0uNiA2LjItLjIgOC45IDEuNiAyLjUgMS43IDQgNCA0LjQgNi45LjUgNC4yLS43IDcuNi0zLjYgMTAuNi0yLjEgMi4xLTQuNiAzLjQtNy41IDQtLjcgMC0xLjYuMS0yLjQuMnptNy40LTEyLjZjMC0uNCAwLS43LS4xLTEtLjYtMy4xLTMuNC00LjgtNi40LTQuMS0yLjkuNy00LjggMi41LTUuNSA1LjQtLjYgMi40LjYgNC45IDIuOSA1LjkgMS43LjcgMy40LjcgNS4xLS4yIDIuNS0xLjQgMy45LTMuNCA0LTZ6IiBjbGFzcz0ic3QwIi8+PC9nPjwvc3dpdGNoPjwvc3ZnPg==" vertex="1" parent="GFp72_mxuHO9eIhjEzk--15">
          <mxGeometry x="122" y="27" width="64" height="64" as="geometry" />
        </mxCell>
        <mxCell id="GFp72_mxuHO9eIhjEzk--17" value="" style="endArrow=classic;startArrow=classic;html=1;rounded=0;entryX=0;entryY=0.5;entryDx=0;entryDy=0;" edge="1" parent="1" source="GFp72_mxuHO9eIhjEzk--9" target="GFp72_mxuHO9eIhjEzk--15">
          <mxGeometry width="50" height="50" relative="1" as="geometry">
            <mxPoint x="458" y="584" as="sourcePoint" />
            <mxPoint x="458" y="604.7106781186548" as="targetPoint" />
          </mxGeometry>
        </mxCell>
        <mxCell id="GFp72_mxuHO9eIhjEzk--18" value="Valkey" style="image;aspect=fixed;html=1;points=[];align=center;fontSize=12;image=img/lib/azure2/general/Cache.svg;" vertex="1" parent="1">
          <mxGeometry x="590" y="288" width="64" height="64" as="geometry" />
        </mxCell>
        <mxCell id="GFp72_mxuHO9eIhjEzk--19" value="YARP&lt;br&gt;Replicas" style="verticalLabelPosition=bottom;html=1;verticalAlign=top;align=center;strokeColor=none;fillColor=#00BEF2;shape=mxgraph.azure.azure_load_balancer;" vertex="1" parent="1">
          <mxGeometry x="300" y="402" width="50" height="35" as="geometry" />
        </mxCell>
      </root>
    </mxGraphModel>
  </diagram>
</mxfile>
